# Blender v2.80 (sub 75) OBJ File: 'craft2.blend'
# www.blender.org
mtllib craft2.mtl
o Cube
v 1.000000 0.999196 -0.968418
v 1.000000 0.938934 -0.968418
v 1.000000 0.999196 0.981093
v 1.000000 0.938934 0.981093
v 0.170513 0.546172 1.160719
v 1.000000 1.000000 -1.000000
v 1.000000 0.523094 -1.000000
v 1.000000 1.000000 1.000000
v 0.240758 0.546172 1.160719
v 3.318358 0.999196 -0.968418
v 3.318358 0.427525 -0.968418
v 3.318358 0.999196 0.981093
v 3.318358 0.427525 0.981093
v 0.253485 1.000000 -4.901820
v 0.473063 0.772948 -5.151032
v 0.249213 1.000000 -4.901820
v 2.159179 0.938934 0.981093
v 2.159179 0.999196 0.981093
v 2.159179 0.999196 -0.968418
v 2.159179 0.938934 -0.968418
v 3.938047 0.427525 -0.968418
v 3.938047 0.999196 -0.968418
v 3.938047 0.999196 0.981093
v 3.938047 0.427525 0.981093
v 4.863924 0.937702 -0.968418
v 4.863924 0.999196 -0.968418
v 4.863924 0.999196 0.981093
v 4.863924 0.937702 0.981093
v 0.724207 0.938934 -3.140180
v 0.724207 0.999196 -3.140180
v 0.746869 0.999196 -3.140180
v 0.746869 0.938934 -3.140180
v 0.020569 1.000000 -7.250261
v 0.020569 0.939938 -7.250261
v 0.245775 0.662045 2.081859
v 0.232572 0.743885 1.948170
v 0.170513 0.662045 2.081859
v 1.000000 0.278646 1.000000
v 0.232572 0.592905 2.402188
v 0.736531 0.648021 -3.075516
v 0.453684 1.000000 -3.324729
v 0.249212 1.000000 -3.324729
v 0.473063 1.000000 -5.151032
v 0.736531 1.000000 -3.075516
v 0.249212 1.024045 -3.324729
v 0.235835 1.019637 -4.901459
v -0.013378 1.019637 -5.150671
v 0.604797 0.710485 -4.113275
v 0.604797 1.000000 -4.113275
v 0.249213 1.000000 -4.113275
v 0.353584 1.000000 -4.113274
v 0.249213 1.110898 -4.113275
v 1.071682 1.478900 -6.849022
v 0.619188 1.268257 -7.379295
v 0.619188 1.290283 -7.379295
v 1.071682 1.494676 -6.849022
v 0.500000 0.278646 1.000000
v 0.205635 0.546172 1.160719
v 0.620379 0.412409 1.080360
v 0.085257 0.412409 1.080359
v 0.352818 0.412409 3.971365
v 0.108997 0.627062 1.170837
v 0.073875 0.627062 1.170837
v -0.011382 0.493299 1.090477
v 0.256179 0.493299 3.981483
v 0.221536 0.565160 1.160790
v 0.124898 0.646050 1.170908
v 0.272081 0.512287 3.981554
v 0.368719 0.431397 3.971437
v -1.000000 0.999196 -0.968418
v -1.000000 0.938934 -0.968418
v -1.000000 0.999196 0.981093
v -1.000000 0.938934 0.981093
v 0.000000 0.523094 -1.000000
v 0.000000 1.000000 1.000000
v -0.170513 0.546172 1.160719
v 0.000000 1.000000 -1.000000
v -1.000000 1.000000 -1.000000
v -1.000000 0.523094 -1.000000
v -1.000000 1.000000 1.000000
v -0.240758 0.546172 1.160719
v -3.318358 0.999196 -0.968418
v -3.318358 0.427525 -0.968418
v -3.318358 0.999196 0.981093
v -3.318358 0.427525 0.981093
v -0.253485 1.000000 -4.901820
v -0.473063 0.772948 -5.151032
v -0.249213 1.000000 -4.901820
v 0.000000 0.772948 -5.151032
v -2.159179 0.938934 0.981093
v -2.159179 0.999196 0.981093
v -2.159179 0.999196 -0.968418
v -2.159179 0.938934 -0.968418
v -3.938047 0.427525 -0.968418
v -3.938047 0.999196 -0.968418
v -3.938047 0.999196 0.981093
v -3.938047 0.427525 0.981093
v -4.863924 0.937702 -0.968418
v -4.863924 0.999196 -0.968418
v -4.863924 0.999196 0.981093
v -4.863924 0.937702 0.981093
v -0.724207 0.938934 -3.140180
v -0.724207 0.999196 -3.140180
v -0.746869 0.999196 -3.140180
v -0.746869 0.938934 -3.140180
v 0.000000 0.939938 -7.250261
v 0.000000 1.000000 -7.250261
v -0.020569 1.000000 -7.250261
v -0.020569 0.939938 -7.250261
v -0.245775 0.662045 2.081859
v -0.232572 0.743885 1.948170
v 0.000000 0.743885 1.948170
v -0.170513 0.662045 2.081859
v -1.000000 0.278646 1.000000
v 0.000000 0.278646 1.000000
v -0.232572 0.592905 2.402188
v 0.000000 0.592905 2.402188
v -0.736531 0.648021 -3.075516
v -0.453684 1.000000 -3.324729
v -0.249212 1.000000 -3.324729
v 0.000000 0.648021 -3.075516
v 0.000000 1.000000 -5.151032
v -0.473063 1.000000 -5.151032
v 0.000000 1.000000 -3.075516
v -0.736531 1.000000 -3.075516
v -0.249212 1.024045 -3.324729
v -0.235835 1.019637 -4.901459
v 0.013378 1.019637 -5.150671
v 0.000000 1.024045 -3.075516
v -0.604797 0.710485 -4.113275
v 0.000000 1.000000 -4.113275
v -0.604797 1.000000 -4.113275
v 0.000000 0.710485 -4.113275
v -0.249213 1.000000 -4.113275
v -0.353584 1.000000 -4.113274
v -0.249213 1.110898 -4.113275
v 0.000000 1.110898 -4.113275
v -1.071682 1.478900 -6.849022
v -0.619188 1.268257 -7.379295
v -0.619188 1.290283 -7.379295
v -1.071682 1.494676 -6.849022
v -0.500000 0.278646 1.000000
v -0.205635 0.546172 1.160719
v -0.620379 0.412409 1.080360
v -0.085257 0.412409 1.080359
v -0.352818 0.412409 3.971365
v -0.108997 0.627062 1.170837
v -0.073875 0.627062 1.170837
v 0.011382 0.493299 1.090477
v -0.256179 0.493299 3.981483
v -0.221536 0.565160 1.160790
v -0.124898 0.646050 1.170908
v -0.272081 0.512287 3.981554
v -0.368719 0.431397 3.971437
vt 0.500000 0.750000
vt 0.625000 0.750000
vt 0.625000 1.000000
vt 0.562500 1.000000
vt 0.500000 1.000000
vt 0.325400 0.700400
vt 0.174600 0.700400
vt 0.174600 0.700400
vt 0.325400 0.700400
vt 0.375000 0.500000
vt 0.125000 0.500000
vt 0.125000 0.500000
vt 0.375000 0.500000
vt 0.375000 0.000000
vt 0.500000 0.000000
vt 0.500000 0.250000
vt 0.375000 0.250000
vt 0.325400 0.549600
vt 0.174600 0.549600
vt 0.125000 0.500000
vt 0.375000 0.500000
vt 0.174600 0.700400
vt 0.325400 0.700400
vt 0.375000 0.750000
vt 0.125000 0.750000
vt 0.325400 0.549600
vt 0.325400 0.549600
vt 0.174600 0.549600
vt 0.174600 0.549600
vt 0.625000 0.750000
vt 0.500000 0.750000
vt 0.500000 0.750000
vt 0.625000 0.750000
vt 0.446776 0.000000
vt 0.428341 0.000000
vt 0.437036 0.000000
vt 0.438111 0.000000
vt 0.625000 0.625000
vt 0.875000 0.625000
vt 0.875000 0.750000
vt 0.625000 0.750000
vt 0.174600 0.549600
vt 0.325400 0.549600
vt 0.325400 0.549600
vt 0.174600 0.549600
vt 0.325400 0.549600
vt 0.174600 0.549600
vt 0.325400 0.700400
vt 0.174600 0.700400
vt 0.174600 0.549600
vt 0.325400 0.549600
vt 0.325400 0.700400
vt 0.174600 0.700400
vt 0.875000 0.750000
vt 0.875000 0.625000
vt 0.625000 0.625000
vt 0.375000 0.250000
vt 0.625000 0.250000
vt 0.625000 0.375000
vt 0.375000 0.375000
vt 0.625000 0.250000
vt 0.375000 0.250000
vt 0.625000 0.375000
vt 0.375000 0.275907
vt 0.375000 0.301664
vt 0.375000 0.324739
vt 0.375000 0.349924
vt 0.375000 0.312915
vt 0.375000 0.312708
vt 0.375000 0.362462
vt 0.375000 0.375000
vt 0.375000 0.312500
vt 0.375000 0.262953
vt 0.375000 0.000000
vt 0.500000 0.000000
vt 0.500000 0.750000
vt 0.625000 0.750000
vt 0.125000 0.500000
vt 0.375000 0.500000
vt 0.375000 0.000000
vt 0.500000 0.000000
vt 0.419646 0.000000
vt 0.375000 0.000000
vt 0.455442 0.000000
vt 0.446776 0.000000
vt 0.438111 0.000000
vt 0.500000 0.000000
vt 0.500000 0.000000
vt 0.455442 0.000000
vt 0.500000 0.000000
vt 0.500000 0.000000
vt 0.625000 0.750000
vt 0.625000 0.750000
vt 0.875000 0.750000
vt 0.875000 0.750000
vt 0.375000 0.312915
vt 0.375000 0.349924
vt 0.375000 0.362462
vt 0.375000 0.312708
vt 0.375000 0.312915
vt 0.375000 0.312915
vt 0.375000 0.312708
vt 0.375000 0.312708
vt 0.562500 1.000000
vt 0.625000 1.000000
vt 0.625000 0.750000
vt 0.325400 0.700400
vt 0.325400 0.700400
vt 0.174600 0.700400
vt 0.174600 0.700400
vt 0.375000 0.500000
vt 0.375000 0.500000
vt 0.125000 0.500000
vt 0.125000 0.500000
vt 0.375000 0.000000
vt 0.375000 0.250000
vt 0.325400 0.549600
vt 0.375000 0.500000
vt 0.125000 0.500000
vt 0.174600 0.549600
vt 0.174600 0.700400
vt 0.125000 0.750000
vt 0.375000 0.750000
vt 0.325400 0.700400
vt 0.325400 0.549600
vt 0.325400 0.549600
vt 0.174600 0.549600
vt 0.174600 0.549600
vt 0.000000 0.000000
vt 0.000000 0.000000
vt 0.000000 0.000000
vt 0.000000 0.000000
vt 0.625000 0.750000
vt 0.625000 0.750000
vt 0.446776 0.000000
vt 0.438111 0.000000
vt 0.437036 0.000000
vt 0.428341 0.000000
vt 0.625000 0.750000
vt 0.875000 0.750000
vt 0.174600 0.549600
vt 0.174600 0.549600
vt 0.325400 0.549600
vt 0.325400 0.549600
vt 0.174600 0.549600
vt 0.325400 0.549600
vt 0.325400 0.700400
vt 0.174600 0.700400
vt 0.174600 0.549600
vt 0.174600 0.700400
vt 0.325400 0.700400
vt 0.325400 0.549600
vt 0.875000 0.750000
vt 0.375000 0.250000
vt 0.625000 0.250000
vt 0.625000 0.250000
vt 0.375000 0.250000
vt 0.375000 0.275907
vt 0.375000 0.312915
vt 0.375000 0.349924
vt 0.375000 0.324739
vt 0.375000 0.301664
vt 0.375000 0.312708
vt 0.375000 0.312500
vt 0.375000 0.362462
vt 0.375000 0.262953
vt 0.375000 0.000000
vt 0.625000 0.750000
vt 0.000000 0.000000
vt 0.000000 0.000000
vt 0.000000 0.000000
vt 0.000000 0.000000
vt 0.375000 0.500000
vt 0.125000 0.500000
vt 0.375000 0.000000
vt 0.375000 0.000000
vt 0.419646 0.000000
vt 0.455442 0.000000
vt 0.446776 0.000000
vt 0.500000 0.000000
vt 0.438111 0.000000
vt 0.455442 0.000000
vt 0.625000 0.750000
vt 0.875000 0.750000
vt 0.875000 0.750000
vt 0.625000 0.750000
vt 0.375000 0.312915
vt 0.375000 0.312708
vt 0.375000 0.362462
vt 0.375000 0.349924
vt 0.375000 0.312915
vt 0.375000 0.312708
vt 0.375000 0.312708
vt 0.375000 0.312915
vn 0.0000 -0.9926 -0.1213
vn 0.0000 0.0000 1.0000
vn 0.9920 0.0000 -0.1259
vn 0.0000 1.0000 0.0000
vn 1.0000 0.0000 0.0000
vn 0.0000 0.0000 -1.0000
vn -0.4036 -0.9149 0.0000
vn 0.0000 -0.9982 -0.0601
vn 0.0000 -1.0000 0.0000
vn 0.4826 -0.8758 0.0000
vn -0.9920 0.0000 0.1260
vn 0.8383 0.0000 -0.5452
vn 0.0000 -0.9969 -0.0793
vn 0.0000 0.9489 0.3156
vn 0.8089 0.2714 0.5215
vn 0.0000 0.9654 0.2608
vn 0.0000 -0.9922 0.1248
vn -0.2924 -0.9531 0.0776
vn 0.0000 -0.9775 -0.2110
vn -0.4167 -0.9085 0.0315
vn 0.7261 -0.6761 0.1252
vn 0.0500 0.9937 -0.1001
vn 0.6338 0.4434 -0.6338
vn -0.9947 -0.1020 0.0109
vn 0.7071 0.0000 0.7071
vn 0.9947 0.1020 -0.0143
vn 0.0473 0.9944 0.0946
vn 0.7607 0.0000 -0.6491
vn 0.4974 -0.8532 -0.1570
vn -0.2107 0.0000 -0.9775
vn -0.4510 0.8884 0.0862
vn 0.9431 0.0000 0.3325
vn 0.6753 -0.7154 0.1793
vn 0.3125 0.9493 0.0327
vn -0.7644 0.6398 0.0800
vn 0.0000 0.1241 -0.9923
vn 0.2316 0.3883 -0.8920
vn -0.6371 -0.7685 0.0590
vn 0.6420 0.7667 0.0029
vn -0.0595 0.0536 -0.9968
vn -0.7649 0.6403 0.0705
vn 0.7649 -0.6403 -0.0705
vn -0.9920 0.0000 -0.1259
vn -1.0000 0.0000 0.0000
vn 0.4036 -0.9149 0.0000
vn -0.4826 -0.8758 0.0000
vn 0.9920 0.0000 0.1260
vn -0.8383 0.0000 -0.5452
vn -0.8089 0.2714 0.5215
vn 0.2924 -0.9531 0.0776
vn 0.4167 -0.9085 0.0315
vn -0.7261 -0.6761 0.1252
vn -0.0500 0.9937 -0.1001
vn -0.6338 0.4434 -0.6338
vn 0.9947 -0.1020 0.0109
vn -0.7071 0.0000 0.7071
vn -0.9947 0.1020 -0.0143
vn -0.0473 0.9944 0.0946
vn -0.7607 0.0000 -0.6491
vn -0.4974 -0.8532 -0.1570
vn 0.2107 0.0000 -0.9775
vn 0.4510 0.8884 0.0862
vn -0.9431 0.0000 0.3325
vn -0.6753 -0.7154 0.1793
vn -0.3125 0.9493 0.0327
vn 0.7644 0.6398 0.0800
vn -0.2316 0.3883 -0.8920
vn 0.6371 -0.7685 0.0590
vn -0.6420 0.7667 0.0029
vn 0.0595 0.0536 -0.9968
vn 0.7649 0.6403 0.0705
vn -0.7649 -0.6403 -0.0705
usemtl Material
s off
f 74/1/1 7/2/1 38/3/1 57/4/1 115/5/1
f 18/6/2 17/7/2 13/8/2 12/9/2
f 49/10/3 48/11/3 15/12/3 43/13/3
f 6/14/4 77/15/4 75/16/4 8/17/4
f 1/18/5 2/19/5 7/20/5 6/21/5
f 4/22/5 3/23/5 8/24/5 38/25/5
f 3/23/5 1/18/5 6/21/5 8/24/5
f 2/19/5 4/22/5 38/25/5 7/20/5
f 19/26/4 18/6/4 12/9/4 10/27/4
f 20/28/6 19/26/6 10/27/6 11/29/6
f 17/7/7 20/28/7 11/29/7 13/8/7
f 48/30/8 133/31/8 89/32/8 15/33/8
f 50/34/4 51/35/4 14/36/4 16/37/4
f 4/22/9 2/19/9 20/28/9 17/7/9
f 106/38/6 107/39/6 33/40/6 34/41/6
f 1/18/4 3/23/4 18/6/4 19/26/4
f 3/23/2 4/22/2 17/7/2 18/6/2
f 29/42/6 30/43/6 31/44/6 32/45/6
f 10/27/6 22/46/6 21/47/6 11/29/6
f 12/9/4 23/48/4 22/46/4 10/27/4
f 13/8/2 24/49/2 23/48/2 12/9/2
f 11/29/9 21/47/9 24/49/9 13/8/9
f 25/50/5 26/51/5 27/52/5 28/53/5
f 22/46/6 26/51/6 25/50/6 21/47/6
f 23/48/4 27/52/4 26/51/4 22/46/4
f 24/49/2 28/53/2 27/52/2 23/48/2
f 21/47/10 25/50/10 28/53/10 24/49/10
f 1/18/11 30/43/11 29/42/11 2/19/11
f 19/26/4 31/44/4 30/43/4 1/18/4
f 20/28/12 32/45/12 31/44/12 19/26/12
f 2/19/9 29/42/9 32/45/9 20/28/9
f 43/54/4 33/40/4 107/39/4 122/55/4
f 89/56/13 106/38/13 34/41/13 15/33/13
f 39/57/14 36/58/14 112/59/14 117/60/14
f 8/61/15 36/58/15 39/57/15 38/62/15
f 75/63/16 112/59/16 36/58/16 8/61/16
f 9/64/17 35/65/17 37/66/17 5/67/17 58/68/17
f 61/69/18 60/70/18 115/71/18 57/72/18
f 37/66/19 35/65/19 39/57/19 117/60/19
f 35/65/20 9/64/20 59/73/20 38/62/20 39/57/20
f 5/67/21 37/66/21 117/60/21 115/71/21 60/70/21
f 77/15/4 6/14/4 44/74/4 124/75/4
f 7/2/8 74/1/8 121/76/8 40/77/8
f 6/21/3 7/20/3 40/78/3 44/79/3
f 16/37/4 14/36/4 43/80/4 122/81/4
f 51/35/4 41/82/4 44/74/4 49/83/4
f 41/82/4 42/84/4 124/75/4 44/74/4
f 52/85/22 46/86/22 47/87/22 137/88/22
f 50/34/5 52/85/5 45/89/5 42/84/5
f 122/81/23 47/87/23 46/86/23 16/37/23
f 131/90/24 137/88/24 47/87/24 122/81/24
f 42/84/25 45/89/25 129/91/25 124/75/25
f 16/37/26 46/86/26 52/85/26 50/34/26
f 45/89/27 52/85/27 137/88/27 129/91/27
f 14/36/4 51/35/4 49/83/4 43/80/4
f 42/84/4 41/82/4 51/35/4 50/34/4
f 40/77/8 121/76/8 133/31/8 48/30/8
f 44/79/3 40/78/3 48/11/3 49/10/3
f 53/92/28 54/93/28 55/94/28 56/95/28
f 34/41/29 54/93/29 53/92/29 15/33/29
f 33/40/30 55/94/30 54/93/30 34/41/30
f 43/54/31 56/95/31 55/94/31 33/40/31
f 15/33/32 53/92/32 56/95/32 43/54/32
f 59/73/33 61/69/33 57/72/33 38/62/33
f 9/64/34 58/68/34 61/69/34 59/73/34
f 62/96/35 63/97/35 64/98/35 65/99/35
f 5/67/36 63/97/36 62/96/36 58/68/36
f 60/70/37 64/98/37 63/97/37 5/67/37
f 61/69/38 65/99/38 64/98/38 60/70/38
f 66/100/39 67/101/39 68/102/39 69/103/39
f 62/96/40 67/101/40 66/100/40 58/68/40
f 65/99/41 68/102/41 67/101/41 62/96/41
f 58/68/42 66/100/42 69/103/42 61/69/42
f 74/1/1 115/5/1 142/104/1 114/105/1 79/106/1
f 91/107/2 84/108/2 85/109/2 90/110/2
f 132/111/43 123/112/43 87/113/43 130/114/43
f 78/115/4 80/116/4 75/16/4 77/15/4
f 70/117/44 78/118/44 79/119/44 71/120/44
f 73/121/44 114/122/44 80/123/44 72/124/44
f 72/124/44 80/123/44 78/118/44 70/117/44
f 71/120/44 79/119/44 114/122/44 73/121/44
f 92/125/4 82/126/4 84/108/4 91/107/4
f 93/127/6 83/128/6 82/126/6 92/125/6
f 90/110/45 85/109/45 83/128/45 93/127/45
f 133/129/5 89/130/5 122/131/5 131/132/5
f 130/133/8 87/134/8 89/32/8 133/31/8
f 134/135/4 88/136/4 86/137/4 135/138/4
f 73/121/9 90/110/9 93/127/9 71/120/9
f 106/38/6 109/139/6 108/140/6 107/39/6
f 70/117/4 92/125/4 91/107/4 72/124/4
f 72/124/2 91/107/2 90/110/2 73/121/2
f 102/141/6 105/142/6 104/143/6 103/144/6
f 82/126/6 83/128/6 94/145/6 95/146/6
f 84/108/4 82/126/4 95/146/4 96/147/4
f 85/109/2 84/108/2 96/147/2 97/148/2
f 83/128/9 85/109/9 97/148/9 94/145/9
f 98/149/44 101/150/44 100/151/44 99/152/44
f 95/146/6 94/145/6 98/149/6 99/152/6
f 96/147/4 95/146/4 99/152/4 100/151/4
f 97/148/2 96/147/2 100/151/2 101/150/2
f 94/145/46 97/148/46 101/150/46 98/149/46
f 70/117/47 71/120/47 102/141/47 103/144/47
f 92/125/4 70/117/4 103/144/4 104/143/4
f 93/127/48 92/125/48 104/143/48 105/142/48
f 71/120/9 93/127/9 105/142/9 102/141/9
f 122/55/5 89/56/5 106/38/5 107/39/5
f 123/153/4 122/55/4 107/39/4 108/140/4
f 89/56/13 87/134/13 109/139/13 106/38/13
f 116/154/14 117/60/14 112/59/14 111/155/14
f 80/156/49 114/157/49 116/154/49 111/155/49
f 75/63/16 80/156/16 111/155/16 112/59/16
f 115/71/5 75/63/5 112/59/5 117/60/5
f 81/158/17 143/159/17 76/160/17 113/161/17 110/162/17
f 146/163/50 142/164/50 115/71/50 145/165/50
f 113/161/19 117/60/19 116/154/19 110/162/19
f 110/162/51 116/154/51 114/157/51 144/166/51 81/158/51
f 76/160/52 145/165/52 115/71/52 117/60/52 113/161/52
f 77/15/4 124/75/4 125/167/4 78/115/4
f 79/106/8 118/168/8 121/76/8 74/1/8
f 74/169/5 121/170/5 124/171/5 77/172/5
f 78/118/43 125/173/43 118/174/43 79/119/43
f 88/136/4 122/81/4 123/175/4 86/137/4
f 124/75/5 131/90/5 137/88/5 129/91/5
f 135/138/4 132/176/4 125/167/4 119/177/4
f 119/177/4 125/167/4 124/75/4 120/178/4
f 136/179/53 137/88/53 128/180/53 127/181/53
f 134/135/44 120/178/44 126/182/44 136/179/44
f 122/81/54 88/136/54 127/181/54 128/180/54
f 131/90/55 122/81/55 128/180/55 137/88/55
f 120/178/56 124/75/56 129/91/56 126/182/56
f 88/136/57 134/135/57 136/179/57 127/181/57
f 126/182/58 129/91/58 137/88/58 136/179/58
f 86/137/4 123/175/4 132/176/4 135/138/4
f 120/178/4 134/135/4 135/138/4 119/177/4
f 118/168/8 130/133/8 133/31/8 121/76/8
f 121/170/5 133/129/5 131/132/5 124/171/5
f 125/173/43 132/111/43 130/114/43 118/174/43
f 138/183/59 141/184/59 140/185/59 139/186/59
f 109/139/60 87/134/60 138/183/60 139/186/60
f 108/140/61 109/139/61 139/186/61 140/185/61
f 123/153/62 108/140/62 140/185/62 141/184/62
f 87/134/63 123/153/63 141/184/63 138/183/63
f 144/166/64 114/157/64 142/164/64 146/163/64
f 81/158/65 144/166/65 146/163/65 143/159/65
f 147/187/66 150/188/66 149/189/66 148/190/66
f 76/160/36 143/159/36 147/187/36 148/190/36
f 145/165/67 76/160/67 148/190/67 149/189/67
f 146/163/68 145/165/68 149/189/68 150/188/68
f 151/191/69 154/192/69 153/193/69 152/194/69
f 147/187/70 143/159/70 151/191/70 152/194/70
f 150/188/71 147/187/71 152/194/71 153/193/71
f 143/159/72 146/163/72 154/192/72 151/191/72
